<mxfile host="app.diagrams.net" modified="2024-02-10T12:29:22.388Z" agent="Mozilla/5.0 (Windows NT 10.0; Win64; x64; rv:121.0) Gecko/20100101 Firefox/121.0" etag="hjZ1im_op3UdcJ7b3mSJ" version="23.1.2" type="device">
  <diagram name="StrÃ¡nka-1" id="uxC6mj62-PhsJei8I73o">
    <mxGraphModel dx="875" dy="465" grid="1" gridSize="10" guides="1" tooltips="1" connect="1" arrows="1" fold="1" page="1" pageScale="1" pageWidth="827" pageHeight="1169" math="0" shadow="0">
      <root>
        <mxCell id="0" />
        <mxCell id="1" parent="0" />
        <mxCell id="a7m-DlVlrpoWM90g0yvl-4" value="" style="shape=trapezoid;perimeter=trapezoidPerimeter;whiteSpace=wrap;html=1;fixedSize=1;rotation=-90;fillColor=#e1d5e7;strokeColor=#9673a6;" vertex="1" parent="1">
          <mxGeometry x="295" y="380" width="90" height="40" as="geometry" />
        </mxCell>
        <mxCell id="a7m-DlVlrpoWM90g0yvl-2" value="ROM-Block Frame 16kB" style="rounded=0;whiteSpace=wrap;html=1;fillColor=#f8cecc;strokeColor=#b85450;" vertex="1" parent="1">
          <mxGeometry x="160" y="320" width="160" height="160" as="geometry" />
        </mxCell>
        <mxCell id="a7m-DlVlrpoWM90g0yvl-3" value="ROM-Block multiplex" style="text;html=1;strokeColor=none;fillColor=none;align=center;verticalAlign=middle;whiteSpace=wrap;rounded=0;rotation=-90;fontSize=11;" vertex="1" parent="1">
          <mxGeometry x="310.63" y="380" width="65" height="30" as="geometry" />
        </mxCell>
        <mxCell id="a7m-DlVlrpoWM90g0yvl-5" value="$00_C000" style="text;html=1;strokeColor=none;fillColor=none;align=center;verticalAlign=middle;whiteSpace=wrap;rounded=0;" vertex="1" parent="1">
          <mxGeometry x="90" y="470" width="60" as="geometry" />
        </mxCell>
        <mxCell id="a7m-DlVlrpoWM90g0yvl-6" value="$00_FFFF" style="text;html=1;strokeColor=none;fillColor=none;align=center;verticalAlign=middle;whiteSpace=wrap;rounded=0;" vertex="1" parent="1">
          <mxGeometry x="90" y="330" width="60" as="geometry" />
        </mxCell>
        <mxCell id="a7m-DlVlrpoWM90g0yvl-7" value="ROMBLOCK reg (1B)" style="rounded=0;whiteSpace=wrap;html=1;fillColor=#e1d5e7;strokeColor=#9673a6;" vertex="1" parent="1">
          <mxGeometry x="160" y="760" width="160" height="20" as="geometry" />
        </mxCell>
        <mxCell id="a7m-DlVlrpoWM90g0yvl-8" value="$00_0001" style="text;html=1;strokeColor=none;fillColor=none;align=center;verticalAlign=middle;whiteSpace=wrap;rounded=0;" vertex="1" parent="1">
          <mxGeometry x="90" y="770" width="60" as="geometry" />
        </mxCell>
        <mxCell id="a7m-DlVlrpoWM90g0yvl-9" value="" style="rounded=0;whiteSpace=wrap;html=1;fillColor=#d5e8d4;strokeColor=#82b366;" vertex="1" parent="1">
          <mxGeometry x="600" y="40" width="120" height="760" as="geometry" />
        </mxCell>
        <mxCell id="a7m-DlVlrpoWM90g0yvl-10" value="" style="endArrow=none;dashed=1;html=1;dashPattern=1 3;strokeWidth=2;rounded=0;exitX=0;exitY=0.5;exitDx=0;exitDy=0;entryX=1;entryY=0.5;entryDx=0;entryDy=0;" edge="1" parent="1" source="a7m-DlVlrpoWM90g0yvl-23" target="a7m-DlVlrpoWM90g0yvl-9">
          <mxGeometry width="50" height="50" relative="1" as="geometry">
            <mxPoint x="560" y="410" as="sourcePoint" />
            <mxPoint x="610" y="360" as="targetPoint" />
          </mxGeometry>
        </mxCell>
        <mxCell id="a7m-DlVlrpoWM90g0yvl-11" value="" style="shape=curlyBracket;whiteSpace=wrap;html=1;rounded=1;flipH=1;labelPosition=right;verticalLabelPosition=middle;align=left;verticalAlign=middle;" vertex="1" parent="1">
          <mxGeometry x="740" y="610" width="20" height="190" as="geometry" />
        </mxCell>
        <mxCell id="a7m-DlVlrpoWM90g0yvl-12" value="&lt;div&gt;SRAM &lt;br&gt;&lt;/div&gt;&lt;div&gt;lowest 512kB&lt;br&gt;&lt;/div&gt;" style="text;html=1;strokeColor=none;fillColor=none;align=center;verticalAlign=middle;whiteSpace=wrap;rounded=0;" vertex="1" parent="1">
          <mxGeometry x="760" y="690" width="60" height="30" as="geometry" />
        </mxCell>
        <mxCell id="a7m-DlVlrpoWM90g0yvl-13" value="" style="shape=curlyBracket;whiteSpace=wrap;html=1;rounded=1;flipH=1;labelPosition=right;verticalLabelPosition=middle;align=left;verticalAlign=middle;" vertex="1" parent="1">
          <mxGeometry x="740" y="40" width="20" height="380" as="geometry" />
        </mxCell>
        <mxCell id="a7m-DlVlrpoWM90g0yvl-14" value="&lt;div&gt;SRAM &lt;br&gt;&lt;/div&gt;&lt;div&gt;upper 1MB&lt;br&gt;&lt;/div&gt;" style="text;html=1;strokeColor=none;fillColor=none;align=center;verticalAlign=middle;whiteSpace=wrap;rounded=0;" vertex="1" parent="1">
          <mxGeometry x="760" y="215" width="60" height="30" as="geometry" />
        </mxCell>
        <mxCell id="a7m-DlVlrpoWM90g0yvl-15" value="" style="endArrow=none;dashed=1;html=1;dashPattern=1 3;strokeWidth=2;rounded=0;exitX=0;exitY=0.5;exitDx=0;exitDy=0;entryX=1;entryY=0.5;entryDx=0;entryDy=0;" edge="1" parent="1">
          <mxGeometry width="50" height="50" relative="1" as="geometry">
            <mxPoint x="600" y="609.5" as="sourcePoint" />
            <mxPoint x="720" y="609.5" as="targetPoint" />
          </mxGeometry>
        </mxCell>
        <mxCell id="a7m-DlVlrpoWM90g0yvl-16" value="" style="endArrow=classic;html=1;rounded=0;exitX=1;exitY=0.5;exitDx=0;exitDy=0;entryX=0;entryY=0.5;entryDx=0;entryDy=0;" edge="1" parent="1" source="a7m-DlVlrpoWM90g0yvl-7" target="a7m-DlVlrpoWM90g0yvl-4">
          <mxGeometry width="50" height="50" relative="1" as="geometry">
            <mxPoint x="620" y="630" as="sourcePoint" />
            <mxPoint x="670" y="580" as="targetPoint" />
            <Array as="points">
              <mxPoint x="340" y="770" />
            </Array>
          </mxGeometry>
        </mxCell>
        <mxCell id="a7m-DlVlrpoWM90g0yvl-17" value="&lt;div&gt;ROMBLOCK index [4:0]&lt;/div&gt;&lt;div&gt;from 00 to $1F&lt;br&gt;&lt;/div&gt;" style="text;html=1;strokeColor=none;fillColor=none;align=center;verticalAlign=middle;whiteSpace=wrap;rounded=0;" vertex="1" parent="1">
          <mxGeometry x="240" y="560" width="90" height="60" as="geometry" />
        </mxCell>
        <mxCell id="a7m-DlVlrpoWM90g0yvl-18" value="" style="shape=curlyBracket;whiteSpace=wrap;html=1;rounded=1;flipH=1;labelPosition=right;verticalLabelPosition=middle;align=left;verticalAlign=middle;" vertex="1" parent="1">
          <mxGeometry x="740" y="420" width="20" height="190" as="geometry" />
        </mxCell>
        <mxCell id="a7m-DlVlrpoWM90g0yvl-19" value="&lt;div&gt;SRAM &lt;br&gt;&lt;/div&gt;&lt;div&gt;512kB&lt;/div&gt;&lt;div&gt;for ROM-Blocks&lt;br&gt;&lt;/div&gt;" style="text;html=1;strokeColor=none;fillColor=none;align=center;verticalAlign=middle;whiteSpace=wrap;rounded=0;fontStyle=1;fontColor=#FF0080;" vertex="1" parent="1">
          <mxGeometry x="760" y="480" width="60" height="80" as="geometry" />
        </mxCell>
        <mxCell id="a7m-DlVlrpoWM90g0yvl-20" value="16kB ROM-Block $00" style="rounded=0;whiteSpace=wrap;html=1;fillColor=#d80073;fontColor=#ffffff;strokeColor=#A50040;" vertex="1" parent="1">
          <mxGeometry x="600" y="590" width="120" height="20" as="geometry" />
        </mxCell>
        <mxCell id="a7m-DlVlrpoWM90g0yvl-21" value="16kB ROM-Block $01" style="rounded=0;whiteSpace=wrap;html=1;fillColor=#d80073;fontColor=#ffffff;strokeColor=#A50040;" vertex="1" parent="1">
          <mxGeometry x="600" y="570" width="120" height="20" as="geometry" />
        </mxCell>
        <mxCell id="a7m-DlVlrpoWM90g0yvl-22" value="16kB ROM-Block $03" style="rounded=0;whiteSpace=wrap;html=1;fillColor=#d80073;fontColor=#ffffff;strokeColor=#A50040;" vertex="1" parent="1">
          <mxGeometry x="600" y="530" width="120" height="20" as="geometry" />
        </mxCell>
        <mxCell id="a7m-DlVlrpoWM90g0yvl-24" value="16kB ROM-Block $02" style="rounded=0;whiteSpace=wrap;html=1;fillColor=#d80073;fontColor=#ffffff;strokeColor=#A50040;" vertex="1" parent="1">
          <mxGeometry x="600" y="550" width="120" height="20" as="geometry" />
        </mxCell>
        <mxCell id="a7m-DlVlrpoWM90g0yvl-25" value="" style="endArrow=none;dashed=1;html=1;dashPattern=1 3;strokeWidth=2;rounded=0;exitX=0;exitY=0.5;exitDx=0;exitDy=0;entryX=1;entryY=0.5;entryDx=0;entryDy=0;" edge="1" parent="1" source="a7m-DlVlrpoWM90g0yvl-9" target="a7m-DlVlrpoWM90g0yvl-23">
          <mxGeometry width="50" height="50" relative="1" as="geometry">
            <mxPoint x="600" y="420" as="sourcePoint" />
            <mxPoint x="720" y="420" as="targetPoint" />
          </mxGeometry>
        </mxCell>
        <mxCell id="a7m-DlVlrpoWM90g0yvl-23" value="16kB ROM-Block $1F" style="rounded=0;whiteSpace=wrap;html=1;fillColor=#d80073;fontColor=#ffffff;strokeColor=#A50040;" vertex="1" parent="1">
          <mxGeometry x="600" y="420" width="120" height="20" as="geometry" />
        </mxCell>
        <mxCell id="a7m-DlVlrpoWM90g0yvl-26" value="" style="endArrow=none;dashed=1;html=1;dashPattern=1 3;strokeWidth=2;rounded=0;exitX=0.5;exitY=0;exitDx=0;exitDy=0;entryX=0.5;entryY=0.526;entryDx=0;entryDy=0;entryPerimeter=0;fillColor=#d80073;strokeColor=#A50040;" edge="1" parent="1" source="a7m-DlVlrpoWM90g0yvl-33" target="a7m-DlVlrpoWM90g0yvl-9">
          <mxGeometry width="50" height="50" relative="1" as="geometry">
            <mxPoint x="570" y="490" as="sourcePoint" />
            <mxPoint x="620" y="440" as="targetPoint" />
          </mxGeometry>
        </mxCell>
        <mxCell id="a7m-DlVlrpoWM90g0yvl-27" value="" style="endArrow=classic;html=1;rounded=0;exitX=1;exitY=1;exitDx=0;exitDy=0;entryX=0.027;entryY=0.156;entryDx=0;entryDy=0;endFill=1;fillColor=#d80073;strokeColor=#A50040;entryPerimeter=0;" edge="1" parent="1" source="a7m-DlVlrpoWM90g0yvl-4" target="a7m-DlVlrpoWM90g0yvl-32">
          <mxGeometry width="50" height="50" relative="1" as="geometry">
            <mxPoint x="590" y="480" as="sourcePoint" />
            <mxPoint x="640" y="430" as="targetPoint" />
          </mxGeometry>
        </mxCell>
        <mxCell id="a7m-DlVlrpoWM90g0yvl-28" value="" style="endArrow=classic;html=1;rounded=0;entryX=-0.053;entryY=0.216;entryDx=0;entryDy=0;endFill=1;fillColor=#d80073;strokeColor=#A50040;entryPerimeter=0;" edge="1" parent="1" target="a7m-DlVlrpoWM90g0yvl-31">
          <mxGeometry width="50" height="50" relative="1" as="geometry">
            <mxPoint x="360" y="440" as="sourcePoint" />
            <mxPoint x="600" y="505" as="targetPoint" />
          </mxGeometry>
        </mxCell>
        <mxCell id="a7m-DlVlrpoWM90g0yvl-30" value="0x08_4000" style="text;html=1;strokeColor=none;fillColor=none;align=center;verticalAlign=middle;whiteSpace=wrap;rounded=0;" vertex="1" parent="1">
          <mxGeometry x="540" y="570" width="60" height="25" as="geometry" />
        </mxCell>
        <mxCell id="a7m-DlVlrpoWM90g0yvl-31" value="0x08_0000" style="text;html=1;strokeColor=none;fillColor=none;align=center;verticalAlign=middle;whiteSpace=wrap;rounded=0;" vertex="1" parent="1">
          <mxGeometry x="540" y="600" width="60" height="10" as="geometry" />
        </mxCell>
        <mxCell id="a7m-DlVlrpoWM90g0yvl-32" value="0x0F_FFFF" style="text;html=1;strokeColor=none;fillColor=none;align=center;verticalAlign=middle;whiteSpace=wrap;rounded=0;" vertex="1" parent="1">
          <mxGeometry x="540" y="420" width="60" height="12.5" as="geometry" />
        </mxCell>
        <mxCell id="a7m-DlVlrpoWM90g0yvl-33" value="" style="rounded=0;whiteSpace=wrap;html=1;fillColor=#d80073;fontColor=#ffffff;strokeColor=#A50040;" vertex="1" parent="1">
          <mxGeometry x="600" y="440" width="120" height="90" as="geometry" />
        </mxCell>
        <mxCell id="a7m-DlVlrpoWM90g0yvl-29" value="" style="endArrow=none;dashed=1;html=1;dashPattern=1 3;strokeWidth=2;rounded=0;exitX=0.5;exitY=0;exitDx=0;exitDy=0;entryX=0.5;entryY=0.526;entryDx=0;entryDy=0;entryPerimeter=0;fillColor=#d80073;strokeColor=#A50040;" edge="1" parent="1">
          <mxGeometry width="50" height="50" relative="1" as="geometry">
            <mxPoint x="670" y="530" as="sourcePoint" />
            <mxPoint x="670" y="440" as="targetPoint" />
          </mxGeometry>
        </mxCell>
        <mxCell id="a7m-DlVlrpoWM90g0yvl-34" value="" style="endArrow=none;dashed=1;html=1;dashPattern=1 3;strokeWidth=2;rounded=0;exitX=0.5;exitY=0;exitDx=0;exitDy=0;entryX=0.5;entryY=0;entryDx=0;entryDy=0;fillColor=#d80073;strokeColor=#A50040;" edge="1" parent="1" source="a7m-DlVlrpoWM90g0yvl-22" target="a7m-DlVlrpoWM90g0yvl-33">
          <mxGeometry width="50" height="50" relative="1" as="geometry">
            <mxPoint x="660" y="530" as="sourcePoint" />
            <mxPoint x="660" y="440" as="targetPoint" />
          </mxGeometry>
        </mxCell>
        <mxCell id="a7m-DlVlrpoWM90g0yvl-35" value="CPU Address Space (BANK 00)" style="text;html=1;strokeColor=none;fillColor=none;align=center;verticalAlign=middle;whiteSpace=wrap;rounded=0;fontStyle=1" vertex="1" parent="1">
          <mxGeometry x="90" y="260" width="60" height="30" as="geometry" />
        </mxCell>
        <mxCell id="a7m-DlVlrpoWM90g0yvl-36" value="vectors" style="rounded=1;whiteSpace=wrap;html=1;fillColor=#f8cecc;strokeColor=#b85450;" vertex="1" parent="1">
          <mxGeometry x="240" y="320" width="80" height="20" as="geometry" />
        </mxCell>
        <mxCell id="a7m-DlVlrpoWM90g0yvl-37" value="ROM-Block Multiplexing Mechanism" style="text;html=1;strokeColor=none;fillColor=none;align=center;verticalAlign=middle;whiteSpace=wrap;rounded=0;fontSize=18;fontStyle=5" vertex="1" parent="1">
          <mxGeometry x="230" y="10" width="330" height="30" as="geometry" />
        </mxCell>
        <mxCell id="a7m-DlVlrpoWM90g0yvl-38" value="0x00_0000" style="text;html=1;strokeColor=none;fillColor=none;align=center;verticalAlign=middle;whiteSpace=wrap;rounded=0;" vertex="1" parent="1">
          <mxGeometry x="540" y="790" width="60" height="10" as="geometry" />
        </mxCell>
        <mxCell id="a7m-DlVlrpoWM90g0yvl-39" value="0x1F_0000" style="text;html=1;strokeColor=none;fillColor=none;align=center;verticalAlign=middle;whiteSpace=wrap;rounded=0;" vertex="1" parent="1">
          <mxGeometry x="530" y="40" width="60" height="10" as="geometry" />
        </mxCell>
      </root>
    </mxGraphModel>
  </diagram>
</mxfile>
